REM DIRINDEX 1\2,1\3,1\4,1\5
REM DIRNAME "folder01","folder02","folder03","folder04","folder05"
TITLE ""
FILE "P1Q_t_0339-0348.mp3" MP3
  TRACK 01 AUDIO
    TITLE "3:cjc173_1940"
    INDEX 01 00:00:00
  TRACK 02 AUDIO
    TITLE "0:"
    INDEX 01 00:01:45
  TRACK 03 AUDIO
    TITLE "4:cjc173_1941"
    INDEX 01 00:01:69
  TRACK 04 AUDIO
    TITLE "0:"
    INDEX 01 00:04:26
  TRACK 05 AUDIO
    TITLE "5:cjc173_1942"
    INDEX 01 00:04:49
  TRACK 06 AUDIO
    TITLE "0:"
    INDEX 01 00:09:68
  TRACK 07 AUDIO
    TITLE "3:cjc173_1943"
    INDEX 01 00:10:38
  TRACK 08 AUDIO
    TITLE "0:"
    INDEX 01 00:12:04
  TRACK 09 AUDIO
    TITLE "4:cjc173_1944"
    INDEX 01 00:12:25
  TRACK 10 AUDIO
    TITLE "0:"
    INDEX 01 00:14:34
  TRACK 11 AUDIO
    TITLE "5:cjc173_1945"
    INDEX 01 00:14:54
  TRACK 12 AUDIO
    TITLE "0:"
    INDEX 01 00:18:63
  TRACK 13 AUDIO
    TITLE "3:cjc173_1946"
    INDEX 01 00:19:35
  TRACK 14 AUDIO
    TITLE "0:"
    INDEX 01 00:20:56
  TRACK 15 AUDIO
    TITLE "4:cjc173_1947"
    INDEX 01 00:21:03
  TRACK 16 AUDIO
    TITLE "0:"
    INDEX 01 00:23:41
  TRACK 17 AUDIO
    TITLE "5:cjc173_1948"
    INDEX 01 00:23:62
  TRACK 18 AUDIO
    TITLE "0:"
    INDEX 01 00:27:56
  TRACK 19 AUDIO
    TITLE "3:cjc173_1949"
    INDEX 01 00:28:26
  TRACK 20 AUDIO
    TITLE "0:"
    INDEX 01 00:29:49
  TRACK 21 AUDIO
    TITLE "4:cjc173_1950"
    INDEX 01 00:29:73
  TRACK 22 AUDIO
    TITLE "0:"
    INDEX 01 00:32:20
  TRACK 23 AUDIO
    TITLE "5:cjc173_1951"
    INDEX 01 00:32:44
  TRACK 24 AUDIO
    TITLE "0:"
    INDEX 01 00:37:33
  TRACK 25 AUDIO
    TITLE "3:cjc173_1952"
    INDEX 01 00:38:05
  TRACK 26 AUDIO
    TITLE "0:"
    INDEX 01 00:39:22
  TRACK 27 AUDIO
    TITLE "4:cjc173_1953"
    INDEX 01 00:39:42
  TRACK 28 AUDIO
    TITLE "0:"
    INDEX 01 00:43:08
  TRACK 29 AUDIO
    TITLE "5:cjc173_1954"
    INDEX 01 00:43:28
  TRACK 30 AUDIO
    TITLE "0:"
    INDEX 01 00:47:10
  TRACK 31 AUDIO
    TITLE "3:cjc173_1955"
    INDEX 01 00:47:55
  TRACK 32 AUDIO
    TITLE "0:"
    INDEX 01 00:49:03
  TRACK 33 AUDIO
    TITLE "4:cjc173_1956"
    INDEX 01 00:49:22
  TRACK 34 AUDIO
    TITLE "0:"
    INDEX 01 00:52:15
  TRACK 35 AUDIO
    TITLE "5:cjc173_1957"
    INDEX 01 00:52:36
  TRACK 36 AUDIO
    TITLE "0:"
    INDEX 01 00:56:38
  TRACK 37 AUDIO
    TITLE "3:cjc173_1958"
    INDEX 01 00:57:06
  TRACK 38 AUDIO
    TITLE "0:"
    INDEX 01 00:58:31
  TRACK 39 AUDIO
    TITLE "4:cjc173_1959"
    INDEX 01 00:58:53
  TRACK 40 AUDIO
    TITLE "0:"
    INDEX 01 01:01:02
  TRACK 41 AUDIO
    TITLE "5:cjc173_1960"
    INDEX 01 01:01:24
  TRACK 42 AUDIO
    TITLE "0:"
    INDEX 01 01:05:49
  TRACK 43 AUDIO
    TITLE "3:cjc173_1961"
    INDEX 01 01:06:21
  TRACK 44 AUDIO
    TITLE "0:"
    INDEX 01 01:07:42
  TRACK 45 AUDIO
    TITLE "4:cjc173_1962"
    INDEX 01 01:07:64
  TRACK 46 AUDIO
    TITLE "0:"
    INDEX 01 01:11:24
  TRACK 47 AUDIO
    TITLE "5:cjc173_1963"
    INDEX 01 01:11:44
  TRACK 48 AUDIO
    TITLE "0:"
    INDEX 01 01:16:02
  TRACK 49 AUDIO
    TITLE "3:cjc173_1964"
    INDEX 01 01:16:47
  TRACK 50 AUDIO
    TITLE "0:"
    INDEX 01 01:17:68
  TRACK 51 AUDIO
    TITLE "4:cjc173_1965"
    INDEX 01 01:18:14
  TRACK 52 AUDIO
    TITLE "0:"
    INDEX 01 01:21:52
  TRACK 53 AUDIO
    TITLE "5:cjc173_1966"
    INDEX 01 01:21:71
  TRACK 54 AUDIO
    TITLE "0:"
    INDEX 01 01:25:10
  TRACK 55 AUDIO
    TITLE "3:cjc173_1967"
    INDEX 01 01:25:58
  TRACK 56 AUDIO
    TITLE "0:"
    INDEX 01 01:26:55
  TRACK 57 AUDIO
    TITLE "4:cjc173_1968"
    INDEX 01 01:27:04
  TRACK 58 AUDIO
    TITLE "0:"
    INDEX 01 01:31:50
  TRACK 59 AUDIO
    TITLE "5:cjc173_1969"
    INDEX 01 01:31:68
  TRACK 60 AUDIO
    TITLE "0:"
    INDEX 01 01:35:64
